<svg width="87" height="103" viewBox="0 0 87 103" fill="none" xmlns="http://www.w3.org/2000/svg">
<g clip-path="url(#clip0_133_980)">
<path d="M6.80847 86.8906L2.31943 81.4297H0.598633V90.4153H2.65611V84.9669L7.15761 90.4153H8.87841V81.4297H6.80847V86.8906Z" fill="white"/>
<path d="M12.7064 86.6672H16.8962V85.0537H12.7064V83.1052H17.4449V81.4297H10.624V90.4153H17.6194V88.7523H12.7064V86.6672Z" fill="white"/>
<path d="M28.306 87.7966L26.2485 81.4297H24.3033L22.1834 87.747L20.1384 81.4297H17.9812L20.949 90.4153H23.1685L25.226 84.3339L27.2087 90.4153H29.4532L32.4085 81.4297H30.4133L28.306 87.7966Z" fill="white"/>
<path d="M35.7127 81.4297L31.6851 90.4153H33.8298L34.6279 88.4916H38.8176L39.6157 90.4153H41.8103L37.7702 81.4297H35.7127ZM35.3012 86.9154L36.7352 83.4775L38.1692 86.9154H35.3012Z" fill="white"/>
<path d="M46.1498 90.4153V87.2381L49.6538 81.4297H47.6088L45.1897 85.4261L42.7831 81.4297H40.5635L44.055 87.2009V90.4153H46.1498Z" fill="white"/>
<path d="M52.9332 88.9014C51.8483 88.9014 50.7136 88.5167 49.953 87.9582L49.2422 89.522C50.0402 90.1425 51.4867 90.5645 52.9207 90.5645C55.5019 90.5645 56.7488 89.2861 56.7488 87.772C56.7488 84.4706 51.4992 85.6124 51.4992 83.9618C51.4992 83.3909 51.973 82.9316 53.22 82.9316C54.018 82.9316 54.8784 83.1675 55.7263 83.6391L56.3748 82.0629C55.5393 81.5416 54.3796 81.2686 53.2449 81.2686C50.6762 81.2686 49.4417 82.5345 49.4417 84.0735C49.4417 87.4121 54.6914 86.2578 54.6914 87.9333C54.6914 88.4794 54.1926 88.9014 52.9456 88.9014H52.9332Z" fill="white"/>
<path d="M6.78353 97.4024H2.68105V93.8652H0.598633V102.851H2.68105V99.1648H6.78353V102.851H8.87841V93.8652H6.78353V97.4024Z" fill="white"/>
<path d="M12.7064 99.1027H16.8962V97.4769H12.7064V95.5283H17.4449V93.8652H10.624V102.851H17.6194V101.175H12.7064V99.1027Z" fill="white"/>
<path d="M21.7345 93.8652L17.7068 102.851H19.8515L20.6496 100.927H24.8394L25.6374 102.851H27.8321L23.7919 93.8652H21.7345ZM21.323 99.351L22.757 95.9131L24.1909 99.351H21.323Z" fill="white"/>
<path d="M30.4755 93.8652H28.3806V102.851H34.9895V101.151H30.4755V93.8652Z" fill="white"/>
<path d="M33.9297 95.5531H36.8102V102.851H38.905V95.5531H41.7855V93.8652H33.9297V95.5531Z" fill="white"/>
<path d="M48.7186 97.4024H44.6161V93.8652H42.5212V102.851H44.6161V99.1648H48.7186V102.851H50.801V93.8652H48.7186V97.4024Z" fill="white"/>
<path d="M59.2553 100.158C58.6443 100.865 57.8837 101.225 56.9859 101.225C55.3025 101.225 54.093 100.046 54.093 98.3459C54.093 96.6455 55.29 95.4665 56.9859 95.4665C57.8837 95.4665 58.6443 95.8264 59.2553 96.5214L60.602 95.2927C59.7541 94.2626 58.4448 93.7041 56.8861 93.7041C54.068 93.7041 51.9856 95.6402 51.9856 98.3459C51.9856 101.051 54.068 102.988 56.8737 102.988C58.4448 102.988 59.7541 102.417 60.602 101.387L59.2553 100.158Z" fill="white"/>
<path d="M64.2681 93.8652L60.2405 102.851H62.3852L63.1833 100.927H67.3731L68.1711 102.851H70.3657L66.3256 93.8652H64.2681ZM63.8566 99.351L65.2906 95.9131L66.7246 99.351H63.8566Z" fill="white"/>
<path d="M78.7576 97.1167C78.7576 95.1061 77.2488 93.8525 74.8422 93.8525H70.9392V102.838H73.0341V100.331H74.9544L76.7001 102.838H78.9447L76.9246 99.9464C78.0967 99.45 78.7826 98.4571 78.7826 97.1043L78.7576 97.1167ZM74.7175 98.6805H73.0216V95.5529H74.7175C75.9894 95.5529 76.6378 96.1238 76.6378 97.1167C76.6378 98.1096 75.9894 98.6805 74.7175 98.6805Z" fill="white"/>
<path d="M82.087 101.175V99.1027H86.2768V97.4769H82.087V95.5283H86.8379V93.8652H80.0171V102.851H87V101.175H82.087Z" fill="white"/>
<path d="M33.3809 42.1234L39.0172 51.4069H38.9673L46.3493 63.5698C47.8705 66.0769 49.3669 65.7045 50.5016 64.2276V20.8383H57.8587L49.9031 10.4254L41.9475 0L33.9919 10.4129L26.0364 20.8259H33.3809V42.1234Z" fill="white"/>
<path d="M17.1207 65.8909V53.0578L11.5218 43.8115H11.5717L4.18975 31.6486C3.77825 30.966 2.95526 29.8862 2.0824 29.7621C1.62102 29.7001 0.847911 29.9731 0.0124512 31.1646V74.405H8.56656C13.28 74.405 17.1207 70.5699 17.1207 65.8909Z" fill="white"/>
<path d="M5.62373 30.792L14.5394 45.4992H14.4896L26.0114 64.4883C28.4056 68.435 30.3882 71.4261 33.7425 73.1016C40.3639 76.4402 50.2023 74.3179 50.5141 66.0645C49.741 67.5414 47.0475 67.9634 44.9153 64.451L35.9995 49.7438H36.0494L24.54 30.7548C22.1459 26.8081 20.1882 23.7673 16.8089 22.1415C10.6115 19.1504 0.685788 21.1982 0.0249023 29.1662C0.798014 27.6892 3.49144 27.2673 5.62373 30.792Z" fill="white"/>
</g>
<defs>
<clipPath id="clip0_133_980">
<rect width="87" height="103" fill="white"/>
</clipPath>
</defs>
</svg>
